<?xml version="1.0" encoding="utf-8"?>
<!-- Generator: Adobe Illustrator 16.0.0, SVG Export Plug-In . SVG Version: 6.00 Build 0)  -->
<!DOCTYPE svg PUBLIC "-//W3C//DTD SVG 1.1//EN" "http://www.w3.org/Graphics/SVG/1.1/DTD/svg11.dtd">
<svg version="1.1" id="Layer_1" xmlns="http://www.w3.org/2000/svg" xmlns:xlink="http://www.w3.org/1999/xlink" x="0px" y="0px"
	 width="92.3px" height="86.3px" viewBox="0 0 92.3 86.3" enable-background="new 0 0 92.3 86.3" xml:space="preserve">
<g>
	<path d="M40.7,44c-1.3,0-2.7,0-4,0c0-2.2,0-4.299,0-6.5c1.3,0,2.6,0,4,0c0-0.1,0-0.2,0-0.3c0-1.7,0-3.5,0-5.2
		c0-1.1,0.2-2.2,0.6-3.2c0.6-1.5,1.7-2.5,3.2-3.1c1.4-0.5,2.8-0.7,4.201-0.7c1.799,0,3.6,0,5.299,0c0,0,0.101,0,0.201,0
		c0,2.2,0,4.4,0,6.7c-0.101,0-0.201,0-0.201,0c-1.299,0-2.5,0-3.799,0c-0.101,0-0.301,0-0.4,0c-0.9,0-1.4,0.5-1.5,1.4
		c0,0.5,0,0.9,0,1.4c0,0.9,0,1.8,0,2.7c0,0.1,0,0.2,0,0.3c2,0,3.9,0,5.9,0C54,39.7,53.8,41.8,53.6,43.9c-1.8,0-3.601,0-5.399,0
		c0,6.4,0,12.801,0,19.2c-2.601,0-5.101,0-7.701,0C40.7,56.8,40.7,50.4,40.7,44z"/>
</g>
</svg>
