<?xml version="1.0" encoding="utf-8"?>
<!-- Generator: Adobe Illustrator 16.0.0, SVG Export Plug-In . SVG Version: 6.00 Build 0)  -->
<!DOCTYPE svg PUBLIC "-//W3C//DTD SVG 1.1//EN" "http://www.w3.org/Graphics/SVG/1.1/DTD/svg11.dtd">
<svg version="1.1" id="Layer_1" xmlns="http://www.w3.org/2000/svg" xmlns:xlink="http://www.w3.org/1999/xlink" x="0px" y="0px"
	 width="83.3px" height="83.3px" viewBox="0 0 83.3 83.3" enable-background="new 0 0 83.3 83.3" xml:space="preserve">
<g>
	<g>
		<path d="M42.5,60.9c-1.7,0-3.5,0-5.2,0c-1.7,0-3.3,0-5-0.4c-4-1-6.4-3.5-7.3-7.5c-0.3-1.299-0.4-2.6-0.4-3.899
			c0-4.101,0-8.1,0-12.2c0-1.6,0.1-3.2,0.6-4.7c1.1-3.7,3.6-5.9,7.3-6.8c1.3-0.3,2.7-0.4,4.1-0.4c4,0,8,0,12,0
			c1.601,0,3.101,0.1,4.601,0.5c3.799,1.1,6.1,3.6,6.899,7.4c0.3,1.6,0.399,3.2,0.399,4.8c0,3.4,0,6.9,0,10.299
			c0,1.701,0,3.4-0.399,5c-1,4-3.5,6.5-7.5,7.4c-1.601,0.4-3.2,0.4-4.8,0.4C46,60.9,44.201,60.9,42.5,60.9z M27.7,43L27.7,43
			c0.1,1.5,0,3,0.1,4.5c0,1.601,0,3.201,0.3,4.801c0.5,2.6,2,4.3,4.6,5c1.1,0.3,2.3,0.4,3.4,0.4c4.3,0,8.601,0,12.8,0
			c0.9,0,1.9-0.101,2.801-0.301c2.6-0.5,4.399-2,5.1-4.6c0.3-1.1,0.4-2.301,0.4-3.5c0-4.2,0-8.4,0-12.6c0-1.1-0.101-2.1-0.301-3.2
			c-0.4-2-1.5-3.5-3.4-4.4c-1.1-0.5-2.199-0.7-3.399-0.7c-2-0.1-4-0.1-6-0.1c-2.7,0-5.3,0-8,0.1c-1,0-2.1,0.1-3.1,0.3
			c-2.2,0.5-3.8,1.8-4.6,4c-0.3,0.9-0.5,1.9-0.5,2.8C27.8,38,27.8,40.5,27.7,43z"/>
		<path d="M42.5,33.8c5.101,0,9.201,4.1,9.201,9.3c0,5.101-4.201,9.2-9.301,9.2c-5.1,0-9.2-4.2-9.1-9.301
			C33.3,37.9,37.5,33.7,42.5,33.8z M36.5,43c0,3.301,2.7,6,6,6c3.301,0,6-2.6,6-6c0-3.299-2.699-6-6-6C39.2,36.9,36.5,39.6,36.5,43z
			"/>
	</g>
	<path d="M52,35.5c-1.299,0-2.399-1.1-2.299-2.4c0-1.3,1.1-2.3,2.399-2.3s2.3,1.1,2.3,2.4C54.4,34.5,53.3,35.5,52,35.5z"/>
</g>
</svg>
