<?xml version="1.0" encoding="utf-8"?>
<!-- Generator: Adobe Illustrator 16.0.0, SVG Export Plug-In . SVG Version: 6.00 Build 0)  -->
<!DOCTYPE svg PUBLIC "-//W3C//DTD SVG 1.1//EN" "http://www.w3.org/Graphics/SVG/1.1/DTD/svg11.dtd">
<svg version="1.1" id="Layer_1" xmlns="http://www.w3.org/2000/svg" xmlns:xlink="http://www.w3.org/1999/xlink" x="0px" y="0px"
	 width="356px" height="111px" viewBox="0 0 356 111" enable-background="new 0 0 356 111" xml:space="preserve">
<g>
	<path fill="#68624E" d="M101.2,39.3c0.3,0.2,0.7,0.3,1.3,0.4c0.4,0.2,0.8,0.8,1.1,1.7h0.1c0.2,1.1-0.2,3.1-1,5.9
		c-0.2,1-0.9,3.3-1.9,6.8c-0.8,3.4-1.2,5.6-1.1,6.5l0.1,0.4c0.3,1.4,0.9,2.1,1.6,2.1h0.7c0.9-0.2,2-0.7,3.3-1.4
		c0.2-0.3,0.9-0.9,2.1-1.9c0.6-0.5,1-1,1.3-1.4c0.4-0.1,1.2-0.8,2.4-2.2l0.1-0.1c0,0.1,0.1,0.1,0.2,0.1h0.2c0-0.1,0.1-0.3,0.5-0.5
		c0-0.2,0.1-0.2,0.1-0.2c-0.1-0.1-0.1-0.2-0.1-0.2h-0.2l0,0.3h-0.2c0.3-0.6,0.8-1.2,1.5-1.8c0.1-0.4,0.3-0.6,0.7-0.6
		c0.3-0.7,0.8-1,1.2-1c0-0.5,0.1-0.7,0.2-0.7c0.1,0,0.2,0.1,0.2,0.2c-0.1,0.3-0.2,0.6-0.5,0.8l0,0.2c0,0.1,0,0.1,0.1,0.1
		c-0.4,0.9-1,2-1.8,3.2c0,0.1-0.5,0.8-1.6,2.2c0,0.1-0.8,0.8-2.3,2.1c-0.9,1.2-2.5,2.5-4.8,3.7c-0.9,0.5-1.8,0.7-2.7,0.7
		c-1.7,0-3-1.2-3.8-3.6l0.1-0.1L98,60.4c-0.1-0.8,0.1-1.3,0.5-1.3l-0.3-0.3l0-0.1l0.1-0.2v-0.1c0-0.1,0-0.1-0.1-0.1
		c0-0.2,0.1-0.3,0.2-0.3l-0.2-0.7c0-0.2,0.2-0.7,0.6-1.4c-0.1-0.2-0.1-0.3-0.1-0.3c0.2-0.4,0.4-0.7,0.3-0.9L99,54.6
		c0-0.3,0.2-0.5,0.4-0.6c-0.1-0.2-0.1-0.2-0.2-0.2c0-0.1,0.2-0.5,0.5-1.2c0.1-1.2,0.3-1.8,0.6-1.8l0-0.1l-0.2-0.3
		c0.2-0.3,0.3-0.5,0.3-0.5c0.1,0,0.2-0.4,0.4-1.1l0-0.1c0-0.1,0-0.1-0.1-0.1c0.2-0.5,0.4-1,0.6-1.5c0-0.1,0.2-0.8,0.6-2
		c-0.1-0.1-0.1-0.2-0.1-0.2c0.2-0.4,0.2-1,0.2-1.8c0.1-0.3,0.2-0.6,0.1-0.8l-0.2-1.3c-0.1-0.2-0.3-0.3-0.7-0.3
		c-1.6,0-4.2,1.6-7.8,4.9c-0.9,1.1-1.9,2-2.8,2.8c-0.3,0.5-1.5,2.2-3.6,5l-1.9,3.4l-2,3.3c0,0.2-0.3,1-1,2.4c-1,3-1.7,4.8-2.1,5.4
		c-0.1,0-0.3,0.1-0.4,0.2c-0.4,0-0.7-0.3-1-0.9c-0.1,0-0.2,0-0.2-0.1V67c0.8-2.6,1.3-4,1.5-4c0.4-1.9,0.8-2.9,1.1-2.9
		c-0.1-0.5,0-0.8,0.2-0.9c0-0.3,0-0.5,0.1-0.5l0,0.1c0.1-0.1,0.2-0.1,0.2-0.1v-0.1l-0.1-0.4c0.1,0,0.1-0.1,0.1-0.2
		c-0.1-0.1-0.1-0.2-0.1-0.2c0.4-0.9,0.6-1.4,0.7-1.4l-0.1-0.4c0.2,0,0.4-0.1,0.3-0.2l-0.1-0.5l0-0.1c0,0,0.1,0,0.3-0.1l-0.1-0.1
		l0-0.2c0-0.2,0.1-0.4,0.5-0.4v-0.1c0-0.1-0.1-0.3-0.2-0.5c0-0.1,0.2-0.5,0.6-1.2c0-0.3,0.1-0.6,0.3-1c-0.1-0.4,0.1-0.7,0.5-0.8
		l0-0.2L84,50.4c0.3,0,0.5-0.3,0.5-1c0.1,0,0.3-0.4,0.5-1.2l0-0.1c0,0,0-0.1-0.1-0.1c0.2-0.2,0.4-0.8,0.4-1.9
		c-0.1-1.8,0-2.8,0.1-2.9c0.1,0,0.2-0.1,0.3-0.2h0.1c0.3,0,0.7,0.3,1.1,1c-0.1,2-0.2,3.4-0.5,4c-0.1,0.2-0.3,0.7-0.4,1.6
		c-0.4,1-0.9,2.6-1.6,5v0.1c0,0.1,0.1,0.1,0.2,0.1h0.1l0.5-0.5c0-0.1-0.1-0.3-0.2-0.5c0.1,0,0.2-0.1,0.1-0.2h0.1l0,0.2h0.1
		c0.2-0.6,0.3-0.9,0.4-0.9c0.3,0,0.5-0.4,0.7-1.1c0.1,0,0.2-0.2,0.4-0.5c0.5,0,0.8-0.1,0.8-0.2l-0.4-0.4l0-0.1
		c0.4,0,0.7-0.3,0.9-0.8c0.2,0,0.4-0.2,0.4-0.7c0.1,0,0.2-0.2,0.5-0.5h0.1l0.2,0.1h0.1l0-0.4l-0.1-0.2c0.4-0.2,0.6-0.4,0.6-0.6
		l-0.1-0.4l0.1-0.1c0,0.1,0.1,0.2,0.2,0.2c0.1,0,0.1-0.1,0.1-0.2L90,47c0.2-0.2,0.4-0.3,0.6-0.5c0-0.2,0.1-0.3,0.2-0.3
		c0.1,0,0.2,0.1,0.3,0.1c0-0.5,0.2-0.7,0.6-0.7l0-0.1c-0.1-0.1-0.1-0.2-0.1-0.2l0.2-0.1c0,0.1,0,0.1,0.1,0.1l-0.1,0.1l0,0.1h0.4
		c0.1,0,0.2-0.3,0.2-0.8l0.2,0.1h0.3c0,0,0.2,0,0.6-0.1l0-0.2c-0.2,0-0.2-0.1-0.2-0.2v-0.1c0.3,0,0.6-0.2,0.7-0.6
		c0.3-0.1,0.4-0.2,0.4-0.2l0.2,0.1h0.1l0-0.1l-0.1-0.4c0.1-0.1,0.2-0.1,0.2-0.1l0.1,0.1c0.3-0.1,0.7-0.4,1.3-1.1
		c0.7-0.1,1-0.4,1-0.7c0.4-0.1,0.9-0.4,1.4-0.8c0.1,0,0.6-0.2,1.5-0.7C100.5,39.4,100.9,39.3,101.2,39.3z M83.9,56.1l0,0.2l0.1,0.1
		l0.1-0.1L83.9,56.1z M98.6,57.7c0,0.1,0,0.2-0.1,0.4h0.2c0.1,0,0.1,0,0.1-0.1l0-0.2H98.6z M111.1,56.8L111.1,56.8l0.2,0.1l0-0.2
		h-0.1C111.1,56.6,111.1,56.7,111.1,56.8z M112.7,54.5L112.7,54.5l0.2,0.1l0-0.1H112.7z M113.8,53.5c0,0.1,0.1,0.1,0.2,0.1h0.1
		l0-0.1H113.8z"/>
	<path fill="#68624E" d="M119.4,49.9c0.5,0,1.2,0.3,1.9,1c0.7,0,1.1,0.2,1.1,0.7c0.1,0,0.1,0,0.1,0.1c-0.8,1.4-1.1,2.6-1.1,3.5v0.2
		c0.1,0.5,0.2,0.7,0.4,0.7h0.5c0.8,0,2.1-1,3.9-3.1c0-0.2,0.4-0.5,1.1-1c0.1-0.4,0.3-0.7,0.7-0.9h0.1c0,0.2,0.1,0.3,0.2,0.5
		c-0.3,1-0.8,1.8-1.5,2.7c-1.8,2.4-3.4,3.6-4.6,3.6c-1.1,0-2-0.7-2.5-2v-0.2h-0.2c-2,1.7-3.6,2.5-4.7,2.5h-0.2
		c-1.1,0-1.8-0.6-2.1-1.7v-0.2c0-1.5,1.1-3,3.4-4.7l2.3-1.5C118,50.1,118.5,50,119.4,49.9z M114.1,56.2v0.6c0,0.1,0.1,0.2,0.2,0.2
		h0.2c1,0,2.3-0.8,4-2.4c1-1.1,1.6-1.9,1.6-2.5V52c0-0.7-0.2-1-0.7-1c-1.3,0.4-2.7,1.5-4.3,3.1C114.5,54.9,114.2,55.6,114.1,56.2z"
		/>
	<path fill="#68624E" d="M133.4,38.5l0.4,0.1l0.5-0.1c0.2,0.3,0.4,0.5,0.4,0.7c0,0.4-0.5,1.5-1.6,3.3c0,0.2,0.1,0.3,0.2,0.3h1.3
		c0.3-0.1,2.6-0.4,7-0.7l1.3-0.2l0.4-0.1c0.5,0.1,0.9,0.1,1.3,0.1c0.1-0.1,0.6-0.2,1.6-0.3c0.3,0.1,0.6,0.1,0.8,0.1h0.3
		c0.1,0,0.2,0,0.3-0.1l0.1,0.1c0.6-0.1,1-0.2,1.3-0.2c0.3,0,0.6,0.1,1,0.2c0.2-0.1,0.4-0.2,0.7-0.2h1c0.1,0,0.2,0,0.3-0.1
		c0.1,0.1,0.2,0.1,0.3,0.1h0.6c0.2,0,0.5,0,0.7-0.1c0.2,0.1,0.4,0.1,0.7,0.1c-0.8,0.1-0.3,0.1,1.3,0.1c0,0,0,0,0.2,0
		c0.2-0.1,0.3-0.2,0.5-0.2c0.8,0.1,1.3,0.1,1.4,0.1v-0.1l0.6,0.2l2.7-0.2l0.5,0.1l1-0.2l0.1,0.2l1-0.1h1.1c0.1,0,0.1,0,0.1,0.1
		c0,0,0,0,0-0.1l0.9-0.1c0.5,0.1,0.8,0.1,1.1,0.1v0.3l-0.5-0.3h0.5c0.2,0,0.4,0,0.7-0.1l0.2,0.1l1.3-0.2l0.4,0.2
		c0.1,0,0.2,0,0.3-0.1c0.1,0,0.2,0,0.2,0.1c0.6-0.1,1-0.1,1.3-0.1h1.6l0.5-0.1c0.1,0.1,0.2,0.1,0.2,0.2c0.2,0,0.4-0.1,0.7-0.2
		l0.4,0.2c0.1-0.1,0.2,0,0.3,0.1h0v0.3h0.3c0.1-0.4,0.1-0.6,0.2-0.6h1.9l0.3,0.6h0.4c0.1-0.3,0.1-0.4,0.1-0.5c0,0,0,0,0,0.1
		l-0.2-0.2c0.3,0,0.7,0.2,1.1,0.6c0.2,0,0.2-0.1,0.2-0.3h-0.2l0.2-0.2l0.2,0c0,0.4,0.2,0.7,0.5,0.7c0-0.4-0.3-0.5-0.8-0.5h1.4
		l-0.1,0.5h0.2c0.2,0,0.4-0.1,0.6-0.3c0.2,0,0.3,0.1,0.6,0.3l0.2-0.1l-0.1-0.2v-0.1c0,0,0,0.1,0,0.1c0-0.1,0.2,0.1,0.7,0.4h0.3
		c0-0.2,0.2-0.4,0.5-0.5c0.1,0.1,0.2,0.1,0.3,0.1c-0.1,0.1-0.1,0.1,0.2,0.1c0-0.1,0.1,0,0.3,0.1c0,0,0.2,0,0.3-0.1h0.3
		c0,0,0,0,0.1-0.2h0.4c0,0,0,0.1,0,0.3l0.2,0.2c-0.1,0-0.3-0.1-0.6-0.2v-0.1l0.2,0.1c-0.6,0.2-0.9,0.3-0.9,0.3h-0.4
		c-0.2,0-0.4,0-0.8-0.1l-0.3,0.2c-0.4-0.1-0.6-0.1-0.9-0.1h-0.1c-0.4,0.2-0.6,0.3-0.6,0.1c-0.2-0.1-0.3-0.1-0.5-0.1
		c-0.2,0.1-0.3,0.2-0.4,0.2l-0.5-0.1c0,0.1,0,0.1,0,0.2h-0.5v-0.2h-0.2c-0.1,0.1-0.5,0.2-1.2,0.3c0-0.1-0.1-0.1-0.4-0.1
		c0,0,0,0-0.1,0c-0.5,0.1-0.9,0.2-1.1,0.2l-0.6-0.1l-0.3,0.2l-0.4-0.1c-0.1,0-0.5,0.1-1.1,0.2c-0.8-0.1-1.2-0.3-1.3-0.4h-0.1
		c-0.2,0.2-0.3,0.3-0.4,0.3c-0.2-0.1-0.3-0.2-0.5-0.2h-0.1c-0.1,0-0.5,0.2-1.1,0.5l-0.1-0.1h-1.8c-0.2,0-0.4,0-0.7,0.1
		c-0.1-0.1-0.2-0.1-0.3-0.1c-0.3,0-0.5,0-0.5,0.1c-0.2-0.1-0.3-0.1-0.6-0.1h-0.5c-0.1,0-0.3,0.1-0.7,0.2h-0.3
		c-0.1,0-0.4-0.1-0.7-0.2l-1.1,0.3c0,0-0.1,0-0.2-0.1c-1.7,0.1-3.1,0.2-4.3,0.2h-0.3c-0.2,0-0.5,0-0.7,0.1l-0.4-0.2l-2.4,0.2
		l-0.4-0.1c-0.2,0.1-0.3,0.1-0.3,0.2l-0.8-0.1h-1.1c-0.3,0-0.7,0.1-1.2,0.2c-0.2,0-0.3,0-0.4-0.1l-2.8,0.2l-0.5-0.1
		c-0.4,0.1-0.7,0.2-0.8,0.2l-0.8-0.1c-3.5,0.2-8.1,0.6-13.6,1.2c0,0-0.1,0.3-0.5,1c0,0.2-0.4,1.1-1.3,2.8c-1,3-1.6,4.7-1.6,4.8
		c0,0.1,0,0.2,0.1,0.3c-0.2,0.7-0.2,1.3-0.2,2v0.9c0.1,0.8,0.6,1.2,1.4,1.2c0.9,0,2.5-0.8,5-2.4c0.7-0.4,1.3-0.9,1.9-1.3
		c0.7-0.8,1.5-1.8,2.5-3.2l0.1,0.2c-0.1,0.8-0.3,1.6-0.7,2.2c-1.8,2.1-3,3.3-3.7,3.7c-0.3,0.4-0.9,0.7-1.6,1.1
		c-1.4,1-2.6,1.4-3.6,1.4c-1.1-0.2-2-0.6-2.5-1.2c0-0.2-0.1-0.6-0.4-0.9l0.1-0.2v-0.2c0-0.2-0.1-0.5-0.2-0.7V56l0.2-0.3v-0.6
		c0-0.2,0-0.5,0.1-0.9c-0.1-0.1-0.1-0.2-0.1-0.3c0.2-1,0.5-2.1,1-3.3c0.1-0.8,0.3-1.4,0.7-1.8c0.2-0.8,0.4-1.5,0.7-1.9
		c0.4-0.7,0.6-1.2,0.6-1.4c-0.1,0-0.2,0-0.3-0.1l-7.1,1.4c-0.5-0.2-0.8-0.5-0.9-0.8l0.1-0.5l0.2-0.5c4.5-1,7.6-1.6,9.4-1.8
		c0.8-1.2,1.3-2,1.3-2.3c0.2-0.3,0.6-1,1.1-2.3L133.4,38.5z M176.9,41.5h0.5v0.4l-0.2,0.5c-0.2-0.1-0.4-0.2-0.6-0.2
		C176.5,41.8,176.7,41.6,176.9,41.5z M182.6,41.6h-0.4v-0.4h0.4V41.6z M185.5,41.3V42h-0.7v-0.7H185.5z M186.6,41.7h-0.4v-0.4h0.4
		V41.7z M186.9,41.8c-0.2,0-0.4-0.2-0.4-0.4h0.4V41.8z M187.3,41.8c0,0,0,0.1,0,0.2l0.7-0.2h-1L187.3,41.8z M188.7,41.6v0.1
		c0,0,0,0.1-0.2,0.2h0C188.3,41.7,188.4,41.6,188.7,41.6z M189.5,42.1h-0.4v-0.4h0.4V42.1z M191.7,41.6c0,0-0.1,0-0.4,0v0h0.2v0.1
		l0,0.1C191.7,41.7,191.7,41.6,191.7,41.6z"/>
	<path fill="#68624E" d="M139.7,50.9c0.2,0,0.5,0.1,0.8,0.3c0,0.2-0.5,1.1-1.5,2.6c-0.2,0.5-0.4,1.2-0.5,2.3
		c0.1,0.2,0.2,0.4,0.3,0.4c0.5,0,1.6-0.7,3.3-2.1c0.8-0.8,1.8-1.9,3-3.3c0.4-0.1,0.7-0.2,1-0.2h0.2c0.1,0,0.2,0.1,0.3,0.4
		c0,0.1-0.3,0.5-1,1.3c-0.2,0.3-0.5,1-0.8,2v0.7c0,0.1,0.1,0.2,0.4,0.4c0.8,0,2.4-1.3,4.9-3.8c0.4-0.6,0.8-1,1.2-1.1h0.1
		c0.1,0,0.2,0.1,0.2,0.2c-0.4,1.3-1.5,2.9-3.3,4.8c-1,0.9-2.1,1.4-3,1.4h-0.1c-1,0-1.7-0.7-2.2-2.1c-1.7,1.7-2.8,2.5-3.4,2.5
		c-0.4,0.1-0.7,0.2-1,0.2c-0.9,0-1.5-0.6-1.7-1.8v-0.1c0-1.6,0.7-3.3,2.2-5.1C139.3,51.1,139.4,51,139.7,50.9z"/>
	<path fill="#68624E" d="M156.6,48.7c0.3,0,0.6,0.3,0.8,1c0,0.6-0.7,2-2.2,4.2c-0.5,1.1-0.8,1.9-0.8,2.6c0,0.2,0.1,0.3,0.4,0.3h0.3
		c1.2-0.4,3.1-2,5.7-4.8c0.4-0.1,0.6-0.3,0.6-0.7c0-0.1,0.1-0.1,0.1-0.1h0.1c0.1,0,0.1,0.1,0.2,0.2v0.2c0,0.2-0.3,0.6-0.8,1.3
		c-0.2,0.6-1.1,1.7-2.7,3.3c-1.1,1-2.1,1.6-3.2,2H155c-1.1,0-1.8-0.4-2.2-1.3c0-0.1,0-0.2-0.1-0.2c0-0.2,0.1-0.3,0.1-0.3l-0.1-0.1
		v-0.5c0.2-0.9,0.8-2.1,2-3.6c0-0.1,0.2-0.4,0.7-1c0.3-0.5,0.4-0.9,0.4-1v-0.1h-0.3c-1.1,0.6-2.1,0.9-3,0.9h-0.1
		c-0.1,0-0.4,0.5-1.1,1.4c-0.2,0.1-0.3,0.1-0.4,0.1H151c-0.2,0-0.5-0.2-0.6-0.6c0-0.2,0.2-0.5,0.6-0.8c0-0.1,0-0.2,0.1-0.3l-0.5-0.6
		v-0.1c0-0.3,0.2-0.5,0.5-0.7h0.5l1-0.3l0.5,0.3c1.2-0.3,2.2-0.6,2.9-0.9C156.3,48.8,156.4,48.8,156.6,48.7z"/>
	<path fill="#68624E" d="M165,49.9c0.5,0,1.2,0.3,1.9,1c0.7,0,1.1,0.2,1.1,0.7c0.1,0,0.1,0,0.1,0.1c-0.8,1.4-1.1,2.6-1.1,3.5v0.2
		c0.1,0.5,0.2,0.7,0.4,0.7h0.5c0.8,0,2.1-1,3.9-3.1c0-0.2,0.4-0.5,1.1-1c0.1-0.4,0.3-0.7,0.7-0.9h0.1c0,0.2,0.1,0.3,0.2,0.5
		c-0.3,1-0.8,1.8-1.5,2.7c-1.8,2.4-3.4,3.6-4.6,3.6c-1.1,0-2-0.7-2.5-2v-0.2h-0.2c-2,1.7-3.6,2.5-4.7,2.5h-0.2
		c-1.1,0-1.8-0.6-2.1-1.7v-0.2c0-1.5,1.1-3,3.4-4.7l2.3-1.5C163.5,50.1,164,50,165,49.9z M159.6,56.2v0.6c0,0.1,0.1,0.2,0.2,0.2h0.2
		c1,0,2.3-0.8,4-2.4c1-1.1,1.6-1.9,1.6-2.5V52c0-0.7-0.2-1-0.7-1c-1.3,0.4-2.7,1.5-4.3,3.1C160,54.9,159.7,55.6,159.6,56.2z"/>
	<path fill="#68624E" d="M199.3,38.7c0.3,0.1,0.6,0.2,0.7,0.2h0.1c0,0,0.2,0,0.6-0.1c0.2,0,0.3,0,0.5,0.1l0.3-0.1c0.2,0,0.3,0,0.3,0
		l0.3,0h0.8C202.9,39,203,39,203,39l0.2-0.1c0.1,0.1,0.1,0.1,0.1,0.1V39c1.6,0,3.3,0.8,5.3,2.4c1.3,1.5,1.9,3.1,1.9,4.6
		c-0.1,0.8-0.1,1.3-0.1,1.5l0.1,0.1c-0.2,1.6-0.7,3.2-1.3,4.6c-0.2,0.2-0.5,0.7-0.9,1.6l-2.6,3c-1.7,1.3-3.1,2.3-4.3,2.9l-0.1-0.1
		l-0.7,0.7c-1,0.8-3.8,1.7-8.5,2.8c-0.2-0.1-0.3-0.1-0.4-0.1c-0.1,0.1-0.8,0.2-2.1,0.3c-0.2-0.1-0.3-0.1-0.3-0.1l-0.6,0.1h-0.9
		c-0.1,0-0.3,0-0.6-0.1c0,0-0.1,0-0.2,0.1l-0.5-0.2h-0.7c-0.1-0.1-0.5-0.3-1.3-0.4c0,0-0.1,0.5-0.1,1.4c-0.1,0-0.2,0.3-0.4,0.9
		c-0.1,0-0.1,0.2-0.2,0.6c-0.2,0.2-0.5,1.1-0.9,2.6c-0.1,0-0.3,0.5-0.6,1.4l-0.7,1.3c0,0.1,0,0.2,0,0.3c-0.4,1-0.7,1.5-1,1.5
		c-0.2-0.1-0.4-0.2-0.7-0.5c0-0.1,0.1-0.4,0.3-0.7l-0.1-0.1c0.2-0.3,0.2-0.4,0.2-0.4l-0.1-0.3c0.4-0.6,0.5-0.9,0.5-1
		c0-0.2-0.1-0.3-0.1-0.5c0.1,0,0.2-0.1,0.3-0.2l-0.2-0.3c0.2,0,0.4-0.4,0.6-1.1l-0.1-0.5c0.2-0.1,0.3-0.2,0.4-0.2v-0.6
		c0.2-0.2,0.4-0.6,0.5-1.4c0.1,0,0.2,0,0.2-0.1l-0.1-0.3c0.1-0.4,0.2-0.7,0.2-0.7c0-0.1,0-0.1,0-0.3l0.6-0.7c0,0.1-0.1,0.1-0.2,0.1
		l0.1-0.6c0-0.2-0.1-0.3-0.4-0.5l-0.1,0c-0.5,0-1.2-0.5-2.3-1.4l0,0c0,0,0,0,0,0l0,0h-0.1c-0.3-0.1-0.6-0.4-0.9-0.8v-0.2
		c0-0.2,0.1-0.3,0.3-0.3h0.1c2,1.3,3.1,1.9,3.6,1.9l0.3-0.5v-0.1c0,0.1,0,0.1-0.1,0.1c0.2-0.7,0.3-1,0.4-1v0l0.9-3
		c0.1,0,0.3-0.6,0.5-1.8c0.2-0.3,0.6-1.5,1.2-3.5c0.2-0.5,0.6-1.9,1.3-4.1c0.1-0.1,0.4-0.7,0.7-1.9c0,0,0,0,0,0.1v-0.2
		c0,0.1,0,0.1-0.1,0.1c0-0.3,0-0.4,0.1-0.4l-0.1-0.6v0h0.1c-1.3,0.7-2.7,1.7-4.3,3c-1.3,1.1-2.6,2.5-4.2,4.3c-0.2,0-0.6,0.5-1,1.6
		c-0.1,0-0.1,0-0.2,0.1c0.1,0.2,0.1,0.4,0.1,0.4c0,0.4-0.2,0.6-0.7,0.6h-0.3c-0.4-0.3-0.5-0.7-0.5-1.1c0.8-1.9,1.5-2.9,2-3
		c0.1-0.5,0.7-1.1,1.8-1.9c0.9-1.1,2.1-2.2,3.7-3.3c0.1,0,0.6-0.4,1.4-1.1l2.7-1.6c0.1-0.2,0.3-0.9,0.5-2.1c0.3-0.2,0.6-0.4,0.9-0.4
		c0.2,0,0.5,0.3,0.8,0.8l-0.3,0.8c0,0,0,0,0,0c2.2-0.9,4-1.4,5.2-1.6c0-0.1,0.2-0.2,0.6-0.3l0.4,0.1h0.3
		C198.4,39.1,198.9,39,199.3,38.7z M190.2,45.4c0-0.1,0-0.1,0.1-0.1c0,0.9-0.3,1.9-0.8,3.3c0,0.3-1.1,3.7-3.3,10.2
		c-0.2,0.9-0.5,1.5-0.8,1.9l-0.2,0.8c0.7,0.3,2.2,0.5,4.4,0.5c0.4-0.1,0.7-0.1,0.9-0.1c0,0.1,0,0.1-0.1,0.1c0.2-0.1,0.3-0.2,0.4-0.2
		c0,0,0.2,0,0.4,0.1c0.3-0.1,0.7-0.2,1.3-0.4c0.3,0.1,0.4,0.1,0.4,0.1c0.2-0.2,1.2-0.5,3-0.9c0,0,0.1-0.1,0.3-0.3l0.2,0.1h0
		c0.2-0.1,0.5-0.3,1.1-0.5h0.2l0.1,0c0.8-0.6,1.8-1.2,3.2-1.8c0.8-0.5,2.1-1.5,3.9-3.1c1.5-1.7,2.5-3.1,2.9-4.2
		c0.6-1.5,0.9-2.9,0.9-4.2c0.1,0,0.1,0,0.1,0c0-3-1.3-4.9-3.8-6c-1.4-0.4-2.2-0.6-2.3-0.6c0.1,0,0.1,0,0.1,0.1l-0.7-0.1h-2.1
		c-2.3,0.2-4.4,0.7-6.2,1.4c-2.2,0.7-3.2,1.3-3.2,1.9C190.6,43.7,190.5,44.4,190.2,45.4z"/>
	<path fill="#68624E" d="M213.9,50.6l0.3-0.1c1.7-0.1,2.6,0.1,2.7,0.6c0.1,0,0.3,0.4,0.7,1.2c0.1,0.3,0.1,0.8-0.1,1.6l0-0.1h0
		c0.3-0.1,1.5-0.9,3.6-2.5c0.3-0.2,0.5-0.3,0.7-0.3c0.2,0.7-0.9,1.9-3.3,3.9c-0.7,0.4-1.3,0.7-1.7,0.8c-1,1-1.8,1.7-2.3,2.1
		c-0.2,0-0.3,0.1-0.5,0.2c-1.2,0.3-2.2-0.1-3.1-1.1c-0.2-0.3-0.3-0.6-0.5-1c-0.5-1.7-0.2-3.1,1.1-4.1c0.4-0.5,1.1-0.9,2-1.1
		C213.4,50.7,213.6,50.7,213.9,50.6z M211.6,55.2l0.1,0.2c0.3,0.8,0.6,1.3,0.9,1.4c0.2,0.1,0.6,0.1,0.9,0c0.8-0.5,1.2-0.8,1.2-0.9v0
		c-1.3-0.6-2.1-1.3-2.4-2.2c0,0-0.1-0.1-0.1-0.2c0-0.3,0-0.5-0.1-0.7h0C211.5,53.6,211.3,54.4,211.6,55.2z M213.8,53.3
		c0.5,1,1.1,1.4,1.8,1.2l0.2,0c0.4-0.6,0.6-1.1,0.6-1.7c-0.4-0.9-0.8-1.3-1.3-1.2c0-0.1-0.1-0.1-0.2-0.1
		C213.8,51.8,213.5,52.4,213.8,53.3z"/>
	<path fill="#68624E" d="M226.9,38.5l0.4,0.1l0.5-0.1c0.2,0.3,0.4,0.5,0.4,0.7c0,0.4-0.5,1.5-1.6,3.3c0,0.2,0.1,0.3,0.2,0.3h1.3
		c0.3-0.1,2.6-0.4,7-0.7l1.3-0.2l0.4-0.1c0.5,0.1,0.9,0.1,1.3,0.1c0.1-0.1,0.6-0.2,1.6-0.3c0.3,0.1,0.6,0.1,0.8,0.1h0.3
		c0.1,0,0.2,0,0.3-0.1l0.1,0.1c0.6-0.1,1-0.2,1.3-0.2c0.3,0,0.6,0.1,1,0.2c0.2-0.1,0.4-0.2,0.7-0.2h1c0.1,0,0.2,0,0.3-0.1
		c0.1,0.1,0.2,0.1,0.3,0.1h0.6c0.2,0,0.5,0,0.7-0.1c0.2,0.1,0.4,0.1,0.7,0.1c-0.8,0.1-0.3,0.1,1.3,0.1c0,0,0,0,0.2,0
		c0.2-0.1,0.3-0.2,0.5-0.2c0.8,0.1,1.3,0.1,1.4,0.1v-0.1l0.6,0.2l2.7-0.2l0.5,0.1l1-0.2l0.1,0.2l1-0.1h1.1c0.1,0,0.1,0,0.1,0.1
		c0,0,0,0,0-0.1l0.9-0.1c0.5,0.1,0.8,0.1,1.1,0.1v0.3l-0.5-0.3h0.5c0.2,0,0.4,0,0.7-0.1l0.2,0.1l1.3-0.2l0.4,0.2
		c0.1,0,0.2,0,0.3-0.1c0.1,0,0.2,0,0.2,0.1c0.6-0.1,1-0.1,1.3-0.1h1.6l0.5-0.1c0.1,0.1,0.2,0.1,0.2,0.2c0.2,0,0.4-0.1,0.7-0.2
		l0.4,0.2c0.1-0.1,0.2,0,0.3,0.1h0v0.3h0.3c0.1-0.4,0.1-0.6,0.2-0.6h1.9l0.3,0.6h0.4c0.1-0.3,0.1-0.4,0.1-0.5c0,0,0,0,0,0.1
		l-0.2-0.2c0.3,0,0.7,0.2,1.1,0.6c0.2,0,0.2-0.1,0.2-0.3h-0.2l0.2-0.2l0.2,0c0,0.4,0.2,0.7,0.5,0.7c0-0.4-0.3-0.5-0.8-0.5h1.4
		l-0.1,0.5h0.2c0.2,0,0.4-0.1,0.6-0.3c0.2,0,0.3,0.1,0.6,0.3l0.2-0.1l-0.1-0.2v-0.1c0,0,0,0.1,0,0.1c0-0.1,0.2,0.1,0.7,0.4h0.3
		c0-0.2,0.2-0.4,0.5-0.5c0.1,0.1,0.2,0.1,0.3,0.1c-0.1,0.1-0.1,0.1,0.2,0.1c0-0.1,0.1,0,0.3,0.1c0,0,0.2,0,0.3-0.1h0.3
		c0,0,0,0,0.1-0.2h0.4c0,0,0,0.1,0,0.3L279,42c-0.1,0-0.3-0.1-0.6-0.2v-0.1l0.2,0.1c-0.6,0.2-0.9,0.3-0.9,0.3h-0.4
		c-0.2,0-0.4,0-0.8-0.1l-0.3,0.2c-0.4-0.1-0.7-0.1-0.9-0.1h-0.1c-0.4,0.2-0.6,0.3-0.6,0.1c-0.2-0.1-0.3-0.1-0.5-0.1
		c-0.2,0.1-0.3,0.2-0.4,0.2l-0.5-0.1c0,0.1,0,0.1,0,0.2h-0.5v-0.2h-0.2c-0.1,0.1-0.5,0.2-1.2,0.3c0-0.1-0.1-0.1-0.4-0.1
		c0,0,0,0-0.1,0c-0.5,0.1-0.9,0.2-1.1,0.2l-0.6-0.1l-0.3,0.2l-0.4-0.1c-0.1,0-0.5,0.1-1.1,0.2c-0.8-0.1-1.2-0.3-1.3-0.4H266
		c-0.2,0.2-0.3,0.3-0.4,0.3c-0.2-0.1-0.3-0.2-0.5-0.2H265c-0.1,0-0.5,0.2-1.1,0.5l-0.1-0.1h-1.8c-0.2,0-0.4,0-0.7,0.1
		c-0.1-0.1-0.2-0.1-0.3-0.1c-0.3,0-0.5,0-0.5,0.1c-0.2-0.1-0.3-0.1-0.6-0.1h-0.5c-0.1,0-0.3,0.1-0.7,0.2h-0.3
		c-0.1,0-0.4-0.1-0.7-0.2l-1.1,0.3c0,0-0.1,0-0.2-0.1c-1.7,0.1-3.1,0.2-4.3,0.2h-0.3c-0.2,0-0.5,0-0.7,0.1l-0.4-0.2l-2.4,0.2
		l-0.4-0.1c-0.2,0.1-0.3,0.1-0.3,0.2l-0.8-0.1h-1.1c-0.3,0-0.7,0.1-1.2,0.2c-0.2,0-0.3,0-0.4-0.1l-2.8,0.2l-0.5-0.1
		c-0.4,0.1-0.7,0.2-0.8,0.2l-0.8-0.1c-3.5,0.2-8.1,0.6-13.6,1.2c0,0-0.1,0.3-0.5,1c0,0.2-0.4,1.1-1.3,2.8c-1,3-1.6,4.7-1.6,4.8
		c0,0.1,0,0.2,0.1,0.3c-0.2,0.7-0.2,1.3-0.2,2v0.9c0.1,0.8,0.6,1.2,1.4,1.2c0.9,0,2.5-0.8,5-2.4c0.7-0.4,1.3-0.9,1.9-1.3
		c0.7-0.8,1.5-1.8,2.5-3.2l0.1,0.2c-0.1,0.8-0.3,1.6-0.7,2.2c-1.8,2.1-3,3.3-3.7,3.7c-0.3,0.4-0.9,0.7-1.6,1.1
		c-1.4,1-2.6,1.4-3.6,1.4c-1.1-0.2-2-0.6-2.5-1.2c0-0.2-0.1-0.6-0.4-0.9l0.1-0.2v-0.2c0-0.2-0.1-0.5-0.2-0.7V56l0.2-0.3v-0.6
		c0-0.2,0-0.5,0.1-0.9c-0.1-0.1-0.1-0.2-0.1-0.3c0.2-1,0.5-2.1,1-3.3c0.1-0.8,0.3-1.4,0.7-1.8c0.2-0.8,0.4-1.5,0.7-1.9
		c0.4-0.7,0.6-1.2,0.6-1.4c-0.1,0-0.2,0-0.3-0.1l-7.1,1.4c-0.5-0.2-0.8-0.5-0.9-0.8l0.1-0.5L215,45c4.5-1,7.6-1.6,9.4-1.8
		c0.8-1.2,1.3-2,1.3-2.3c0.2-0.3,0.6-1,1.1-2.3L226.9,38.5z M270.4,41.5h0.5v0.4l-0.2,0.5c-0.2-0.1-0.4-0.2-0.6-0.2
		C270,41.8,270.1,41.6,270.4,41.5z M276,41.6h-0.4v-0.4h0.4V41.6z M279,41.3V42h-0.7v-0.7H279z M280,41.7h-0.4v-0.4h0.4V41.7z
		 M280.4,41.8c-0.2,0-0.4-0.2-0.4-0.4h0.4V41.8z M280.8,41.8c0,0,0,0.1,0,0.2l0.7-0.2h-1L280.8,41.8z M282.1,41.6v0.1
		c0,0,0,0.1-0.2,0.2h0C281.8,41.7,281.9,41.6,282.1,41.6z M282.9,42.1h-0.4v-0.4h0.4V42.1z M285.2,41.6c0,0-0.1,0-0.4,0v0h0.2v0.1
		l0,0.1C285.1,41.7,285.2,41.6,285.2,41.6z"/>
	<path fill="#68624E" d="M238,38.5l0.4,0.1l0.5-0.1c0.2,0.3,0.4,0.5,0.4,0.7c0,0.4-0.5,1.5-1.6,3.3c0,0.2,0.1,0.3,0.2,0.3h1.3
		c0.3-0.1,2.6-0.4,7-0.7l1.3-0.2l0.4-0.1c0.5,0.1,0.9,0.1,1.3,0.1c0.1-0.1,0.7-0.2,1.6-0.3c0.3,0.1,0.6,0.1,0.8,0.1h0.3
		c0.1,0,0.2,0,0.3-0.1l0.1,0.1c0.6-0.1,1-0.2,1.3-0.2c0.3,0,0.6,0.1,1,0.2c0.2-0.1,0.4-0.2,0.7-0.2h1c0.1,0,0.2,0,0.3-0.1
		c0.1,0.1,0.2,0.1,0.3,0.1h0.6c0.2,0,0.5,0,0.7-0.1c0.2,0.1,0.4,0.1,0.7,0.1c-0.8,0.1-0.3,0.1,1.3,0.1c0,0,0,0,0.2,0
		c0.2-0.1,0.3-0.2,0.5-0.2c0.8,0.1,1.3,0.1,1.4,0.1v-0.1l0.6,0.2l2.7-0.2l0.5,0.1l1-0.2l0.1,0.2l1-0.1h1.1c0.1,0,0.1,0,0.1,0.1
		c0,0,0,0,0-0.1l0.9-0.1c0.5,0.1,0.8,0.1,1.1,0.1v0.3l-0.5-0.3h0.5c0.2,0,0.4,0,0.7-0.1l0.2,0.1l1.3-0.2l0.4,0.2
		c0.1,0,0.2,0,0.3-0.1c0.1,0,0.2,0,0.2,0.1c0.6-0.1,1-0.1,1.3-0.1h1.6l0.5-0.1c0.1,0.1,0.2,0.1,0.2,0.2c0.2,0,0.4-0.1,0.7-0.2
		l0.4,0.2c0.1-0.1,0.2,0,0.3,0.1h0v0.3h0.3c0.1-0.4,0.1-0.6,0.2-0.6h1.9l0.3,0.6h0.4c0.1-0.3,0.1-0.4,0.1-0.5c0,0,0,0,0,0.1
		l-0.2-0.2c0.3,0,0.7,0.2,1.1,0.6c0.2,0,0.2-0.1,0.2-0.3h-0.2l0.2-0.2l0.2,0c0,0.4,0.2,0.7,0.5,0.7c0-0.4-0.3-0.5-0.8-0.5h1.4
		l-0.1,0.5h0.2c0.2,0,0.4-0.1,0.6-0.3c0.2,0,0.3,0.1,0.6,0.3l0.2-0.1l-0.1-0.2v-0.1c0,0,0,0.1,0,0.1c0-0.1,0.2,0.1,0.7,0.4h0.3
		c0-0.2,0.2-0.4,0.5-0.5c0.1,0.1,0.2,0.1,0.3,0.1c-0.1,0.1-0.1,0.1,0.2,0.1c0-0.1,0.1,0,0.3,0.1c0,0,0.2,0,0.3-0.1h0.3
		c0,0,0,0,0.1-0.2h0.4c0,0,0,0.1,0,0.3l0.2,0.2c-0.1,0-0.3-0.1-0.6-0.2v-0.1l0.2,0.1c-0.6,0.2-0.9,0.3-0.9,0.3h-0.4
		c-0.2,0-0.4,0-0.8-0.1l-0.3,0.2c-0.4-0.1-0.6-0.1-0.9-0.1h-0.1c-0.4,0.2-0.6,0.3-0.6,0.1c-0.2-0.1-0.3-0.1-0.5-0.1
		c-0.2,0.1-0.3,0.2-0.4,0.2l-0.5-0.1c0,0.1,0,0.1,0,0.2h-0.5v-0.2h-0.2c-0.1,0.1-0.5,0.2-1.2,0.3c0-0.1-0.1-0.1-0.4-0.1
		c0,0,0,0-0.1,0c-0.5,0.1-0.9,0.2-1.1,0.2l-0.6-0.1l-0.3,0.2l-0.4-0.1c-0.1,0-0.5,0.1-1.1,0.2c-0.8-0.1-1.2-0.3-1.3-0.4h-0.1
		c-0.2,0.2-0.3,0.3-0.4,0.3c-0.2-0.1-0.3-0.2-0.5-0.2h-0.1c-0.1,0-0.5,0.2-1.1,0.5l-0.1-0.1H273c-0.2,0-0.4,0-0.7,0.1
		c-0.1-0.1-0.2-0.1-0.3-0.1c-0.3,0-0.5,0-0.5,0.1c-0.2-0.1-0.3-0.1-0.6-0.1h-0.5c-0.1,0-0.3,0.1-0.7,0.2h-0.3
		c-0.1,0-0.4-0.1-0.7-0.2l-1.1,0.3c0,0-0.1,0-0.2-0.1c-1.7,0.1-3.1,0.2-4.3,0.2h-0.3c-0.2,0-0.5,0-0.7,0.1l-0.4-0.2l-2.4,0.2
		l-0.4-0.1c-0.2,0.1-0.3,0.1-0.3,0.2l-0.8-0.1h-1.1c-0.3,0-0.7,0.1-1.2,0.2c-0.2,0-0.3,0-0.4-0.1l-2.8,0.2l-0.5-0.1
		c-0.4,0.1-0.7,0.2-0.8,0.2l-0.8-0.1c-3.5,0.2-8.1,0.6-13.6,1.2c0,0-0.1,0.3-0.5,1c0,0.2-0.4,1.1-1.3,2.8c-1,3-1.6,4.7-1.6,4.8
		c0,0.1,0,0.2,0.1,0.3c-0.2,0.7-0.2,1.3-0.2,2v0.9c0.1,0.8,0.6,1.2,1.4,1.2c0.9,0,2.5-0.8,5-2.4c0.7-0.4,1.3-0.9,1.9-1.3
		c0.7-0.8,1.5-1.8,2.5-3.2l0.1,0.2c-0.1,0.8-0.3,1.6-0.7,2.2c-1.8,2.1-3,3.3-3.7,3.7c-0.3,0.4-0.9,0.7-1.6,1.1
		c-1.4,1-2.6,1.4-3.6,1.4c-1.1-0.2-2-0.6-2.5-1.2c0-0.2-0.1-0.6-0.4-0.9l0.1-0.2v-0.2c0-0.2-0.1-0.5-0.2-0.7V56l0.2-0.3v-0.6
		c0-0.2,0-0.5,0.1-0.9c-0.1-0.1-0.1-0.2-0.1-0.3c0.2-1,0.5-2.1,1-3.3c0.1-0.8,0.3-1.4,0.7-1.8c0.2-0.8,0.4-1.5,0.7-1.9
		c0.4-0.7,0.6-1.2,0.6-1.4c-0.1,0-0.2,0-0.3-0.1l-7.1,1.4c-0.5-0.2-0.8-0.5-0.9-0.8l0.1-0.5l0.2-0.5c4.5-1,7.6-1.6,9.4-1.8
		c0.8-1.2,1.3-2,1.3-2.3c0.2-0.3,0.6-1,1.1-2.3L238,38.5z M281.5,41.5h0.5v0.4l-0.2,0.5c-0.2-0.1-0.4-0.2-0.6-0.2
		C281.1,41.8,281.3,41.6,281.5,41.5z M287.2,41.6h-0.4v-0.4h0.4V41.6z M290.1,41.3V42h-0.7v-0.7H290.1z M291.2,41.7h-0.4v-0.4h0.4
		V41.7z M291.5,41.8c-0.2,0-0.4-0.2-0.4-0.4h0.4V41.8z M291.9,41.8c0,0,0,0.1,0,0.2l0.7-0.2h-1L291.9,41.8z M293.3,41.6v0.1
		c0,0,0,0.1-0.2,0.2h0C292.9,41.7,293,41.6,293.3,41.6z M294,42.1h-0.4v-0.4h0.4V42.1z M296.3,41.6c0,0-0.1,0-0.4,0v0h0.2v0.1l0,0.1
		C296.3,41.7,296.3,41.6,296.3,41.6z"/>
	<path fill="#68624E" d="M246.7,49.6c0.3,0,0.7,0.2,1.1,0.7c0,0.8-0.2,1.4-0.6,1.9c-1.3,1.6-2.4,2.4-3.3,2.6l-0.9,0.4v0.3
		c0,0.6,0.6,0.9,1.7,0.9c0.8-0.1,1.5-0.2,2.2-0.5s1.8-1.2,3.1-2.8c0.3-0.6,0.7-1.1,1.3-1.7h0.3c0,0.2,0,0.3,0.1,0.5v0.2
		c-1.4,3.2-3.5,5.1-6.3,5.6c-0.3,0-0.6,0-0.9,0.1c-1.7,0-2.8-0.8-3.4-2.5l-0.1-1.2h0.3c0.2-1,1.1-2.2,2.7-3.5
		C245.2,50,246,49.6,246.7,49.6z M243.3,53.6c1.6-0.5,2.7-1.4,3.2-2.6v-0.1c0-0.1,0-0.1,0-0.1c-1,0.2-2.1,1.1-3.2,2.7H243.3z
		 M252.1,51.1l0.2,0.4l-0.3,0.2h-0.5v-0.5L252.1,51.1z"/>
	<path fill="#68624E" d="M257,48.7c0.3,0,0.6,0.3,0.8,1c0,0.6-0.7,2-2.2,4.2c-0.5,1.1-0.8,1.9-0.8,2.6c0,0.2,0.1,0.3,0.4,0.3h0.3
		c1.2-0.4,3.1-2,5.7-4.8c0.4-0.1,0.6-0.3,0.6-0.7c0-0.1,0.1-0.1,0.1-0.1h0.1c0.1,0,0.1,0.1,0.2,0.2v0.2c0,0.2-0.3,0.6-0.8,1.3
		c-0.2,0.6-1.1,1.7-2.7,3.3c-1.1,1-2.1,1.6-3.2,2h-0.3c-1.1,0-1.8-0.4-2.2-1.3c0-0.1,0-0.2-0.1-0.2c0-0.2,0.1-0.3,0.1-0.3l-0.1-0.1
		v-0.5c0.2-0.9,0.8-2.1,2-3.6c0-0.1,0.2-0.4,0.7-1c0.3-0.5,0.4-0.9,0.4-1v-0.1H256c-1.1,0.6-2.1,0.9-3,0.9h-0.1
		c-0.1,0-0.4,0.5-1.1,1.4c-0.2,0.1-0.3,0.1-0.4,0.1h-0.1c-0.2,0-0.5-0.2-0.6-0.6c0-0.2,0.2-0.5,0.6-0.8c0-0.1,0-0.2,0.1-0.3
		l-0.5-0.6v-0.1c0-0.3,0.2-0.5,0.5-0.7h0.5l1-0.3l0.5,0.3c1.2-0.3,2.2-0.6,2.9-0.9C256.6,48.8,256.8,48.8,257,48.7z"/>
	<path fill="#68624E" d="M266.6,50.2h0.2c0.4,0.2,0.7,0.5,0.8,0.9c-0.5,1.7-0.7,3.5-0.7,5.5c0,0.1,0,0.1,0.1,0.1l-0.1,0.5
		c0,0.3,0,0.9,0.1,1.8c-0.1,0.2-0.2,0.4-0.2,0.5c0,0.1,0,0.3,0.1,0.4c-0.1,2.1-0.2,3.5-0.4,4l0.6,0.1c0.4-0.1,0.6-0.2,0.8-0.4h0.3
		c0.1,0,0.1,0,0.1,0.1c0.3-0.2,0.9-0.3,1.5-0.5l0.3,0.2h0.1c0-0.3,1.1-0.5,3.2-0.7c0.2-0.2,0.4-0.3,0.7-0.3h0.1
		c0,0.2,0.1,0.3,0.2,0.3l0.4-0.4l0.6,0.1h0.2c0.2-0.2,0.5-0.4,0.9-0.5c0.1,0,0.1,0,0.1,0.1l1.1-0.1h0.8l1.1-0.4c0,0,0.2,0,0.4,0.1
		c0.3,0,1.1-0.2,2.6-0.6c0.2,0.1,0.4,0.2,0.6,0.2c0.1-0.2,0.3-0.4,0.6-0.4h0.5l0.4,0.3h0.1c0-0.2,0.5-0.4,1.5-0.6h0.2l0.3,0.3
		c0.1-0.2,0.2-0.3,0.3-0.3h0.3c1.4,0,2.2-0.1,2.2-0.3l0.5,0.1h0.4c0.4-0.1,0.7-0.2,0.7-0.2h0.7c0.1,0,0.1,0,0.1-0.1l0.2,0.1h2.7
		c0.5,0,1.1,0,1.9,0.1c0.3-0.1,0.5-0.1,0.5-0.2c0.4,0.2,0.6,0.3,0.8,0.3c0.2-0.1,0.4-0.2,0.6-0.2h0.3l0.6,0.1c0-0.1,0.1-0.2,0.2-0.2
		c0.1,0,0.1,0,0.1,0.1l0.6-0.1h0.3c0.7,0.2,1,0.3,1.1,0.3c0.1-0.2,0.2-0.4,0.3-0.4h0.1c0.1,0,0.2,0.1,0.2,0.3h0.3l0.4-0.4h0.5
		c0.3,0,0.8,0.1,1.4,0.2l0.1-0.2l0.5,0.1c0.2,0,0.4-0.1,0.6-0.2c0.2,0,0.3,0.1,0.3,0.3h0.1l0.3-0.2h0.5v0.1l-0.1,0.2h0.7
		c0-0.4,0.1-0.5,0.3-0.5l0.2,0.1h0.2l1.1-0.1l0.2,0.3c0.8-0.3,1.4-0.5,2-0.5c0.3,0.2,0.5,0.3,0.7,0.3c0-0.1,0.1-0.2,0.2-0.2h0.1
		l0.3,0.2h0.3l0.4-0.3l1.1,0.2c0.4-0.1,0.7-0.2,0.8-0.2l0.2,0.1l0.2-0.1l1.9,0.2c0.2,0,0.4-0.1,0.7-0.3h0.6c0.4,0.1,0.7,0.2,0.7,0.2
		h1.2l0.5,0.3h0.1c0-0.3,0.1-0.5,0.3-0.5c0.9,0.1,1.4,0.3,1.5,0.5h0.1c0.4,0,0.8-0.1,1-0.2l0.5,0.1l0.4-0.2l0.2,0.1
		c0.3-0.1,0.6-0.1,0.8-0.1h0.1c0.1,0,0.1,0,0.1,0.1l0.5-0.2c0.1,0.1,0.2,0.1,0.3,0.1h0.1c0.1,0,0.1,0,0.1-0.1
		c0.2,0.1,0.4,0.2,0.5,0.2h0.5v0.2h0.3c0.1,0,0.3,0,0.3,0.1c0.1-0.1,0.2-0.1,0.4-0.1h0.2c0.1,0,0.2,0.1,0.3,0.3
		c-0.1,0.1-0.2,0.1-0.4,0.1v0.2c0.2,0,0.3,0.1,0.3,0.2v0.1c-0.3-0.1-0.6-0.2-0.8-0.3c-0.2,0.1-0.3,0.1-0.4,0.1c-0.1,0-0.1,0-0.3-0.1
		c-0.8,0.1-1.2,0.1-1.2,0.3l-0.5-0.1h-0.1c-0.1,0-0.1,0-0.1,0.1c-0.1-0.1-0.4-0.1-0.8-0.2c-0.8,0.1-1.5,0.2-2,0.4h-4.7
		c-0.1,0-0.1,0-0.1,0.1l-0.2-0.1H315c-0.2,0-0.5,0-0.8,0.1c-0.1-0.1-0.2-0.1-0.4-0.1c-0.5,0.1-0.8,0.1-0.9,0.2l-0.5-0.1h-0.1
		c-0.2,0-0.4,0-0.5,0.1l-0.5-0.1H311c-0.6,0-0.9,0.1-0.9,0.2l-0.2-0.1h-0.3c-0.2,0-0.4,0-0.5,0.1l-0.6-0.1H308
		c-0.2,0-0.6,0.1-1.3,0.2c-0.6,0-2.4,0-5.6,0.1c-0.1,0-0.3,0-0.7-0.1l-0.4,0.2c0-0.1-0.1-0.2-0.3-0.3h-0.1l-0.6,0.3
		c-0.2-0.1-0.5-0.2-0.7-0.2c-0.3,0.2-0.5,0.3-0.7,0.3c-0.3,0-0.8-0.1-1.4-0.3c-0.3,0.2-0.5,0.4-0.6,0.4l-0.9-0.1
		c-0.6,0.1-1.4,0.2-2.3,0.3c-0.1-0.1-0.2-0.1-0.3-0.1l-3.6,0.4l-0.2-0.1c-0.8,0-1.2,0.1-1.2,0.2l-0.2-0.1h-0.1
		c-0.2,0-0.9,0.2-2.3,0.5l-0.2-0.1h-0.1l-2.4,0.5l-0.2-0.1c-4.9,0.7-8.5,1.3-10.6,1.8h-1c-0.3,0.2-1.4,0.5-3.2,0.9
		c-0.6,0.1-0.9,0.5-0.9,1.2c-0.1,0-0.3,0.5-0.6,1.6c-1.2,3.4-2.3,5.6-3.3,6.7c-1.8,2.7-4,4.5-6.7,5.5c-1.2,0.4-2.3,0.6-3.2,0.6h-0.6
		c-1.9-0.2-3.2-0.7-4.1-1.3c-1.7-0.9-2.5-2.2-2.5-3.8c0-1.1,0.7-2.2,2-3.3c0.6-0.7,1.9-1.7,3.8-2.8c0.1,0,0.7-0.3,1.8-1
		c4.5-2,7.1-3,7.7-3c0.6-0.4,1.9-0.8,3.8-1.3c0.7-0.1,1-0.3,1-0.8v-0.5l-0.1-0.5c0-0.1,0.2-0.2,0.5-0.5l-0.1-0.5
		c0.1-0.1,0.1-0.2,0.1-0.3l-0.1-0.2l0.1-0.5l-0.1-0.4c0.1-0.1,0.1-0.2,0.1-0.3c-0.1-0.2-0.1-0.5-0.1-0.6h0.1l-0.1-0.2v-0.3l0.2-0.3
		l-0.1-0.4l0.4-0.9l-0.5-0.5v-0.9l0.2-0.6c-0.1-0.4-0.2-0.6-0.2-0.7h-0.1c-1.4,2-2.3,3-2.6,3c-0.5,0.9-1.2,1.4-1.9,1.4
		c-1,0-1.6-0.5-1.7-1.5c0.1-0.2,0.1-0.3,0.2-0.3c0-0.1,0-0.1-0.1-0.1l0.1-0.6v-0.6c0.2,0,0.5-0.7,0.9-2.2c0.8-2.1,1.4-3.2,1.8-3.2
		h0.1c0.4,0,0.5,0.2,0.5,0.7c-1.3,2.8-2,4.6-2,5.4v0.2l0.1,0.5c0.7-0.2,1.5-0.9,2.6-2.1c1.3-1.6,1.9-2.5,1.9-2.7
		c0.4-0.7,0.8-1.5,1-2.5C266.2,50.5,266.4,50.4,266.6,50.2z M246.8,76.4v0.4c0.6,2,2.3,3.1,5,3.3c1-0.2,1.5-0.3,1.5-0.4l0.5,0.1h0.3
		l1.9-1l0.2,0.1h0.3c0-0.4,0.4-0.6,1.1-0.7c0.2-0.5,0.8-1.1,1.7-1.6c0-0.4,0.5-0.9,1.4-1.4c0.4-0.2,0.5-0.5,0.5-1
		c0.1,0,0.4-0.4,0.8-1.2c0.2-0.4,0.5-0.6,0.8-0.6v-0.3c-0.1-0.2-0.2-0.2-0.2-0.3c0.2-0.7,0.4-1,0.5-1c0.2,0,0.3-0.3,0.4-0.8
		c0.1,0,0.1,0,0.1-0.1v-0.5c0.4,0,0.6-0.3,0.6-0.9c0.1,0,0.2-0.2,0.3-0.5c0.1,0,0.2-0.1,0.2-0.2c-0.1-0.1-0.1-0.2-0.1-0.3
		c0.1,0,0.2-0.1,0.2-0.2c0-0.1,0-0.2-0.1-0.3c0-0.4,0.2-0.6,0.5-0.6v-0.3c0-0.1-0.1-0.2-0.2-0.2h-0.1c-3.3,0.8-6.8,2.1-10.7,3.9
		C249.1,72.5,246.8,74.6,246.8,76.4z M274.7,62.5v0.2c0.1,0,0.3,0,0.4,0.1l0.1-0.2l-0.2-0.1H274.7z M307.3,60.1v0.1h0.2
		c0.1,0,0.2-0.1,0.3-0.3h-0.3C307.4,59.9,307.3,60,307.3,60.1z M324,59.5h0.3v0.1H324V59.5z M330.1,60c0.4,0.2,0.8,0.3,1.4,0.3v0.3
		l-0.6-0.1h-0.2l-0.5,0.1c-0.1-0.2-0.2-0.2-0.2-0.3v-0.2L330.1,60z"/>
</g>
</svg>
