<?xml version="1.0" encoding="utf-8"?>
<!-- Generator: Adobe Illustrator 16.0.0, SVG Export Plug-In . SVG Version: 6.00 Build 0)  -->
<!DOCTYPE svg PUBLIC "-//W3C//DTD SVG 1.1//EN" "http://www.w3.org/Graphics/SVG/1.1/DTD/svg11.dtd">
<svg version="1.1" id="Layer_1" xmlns="http://www.w3.org/2000/svg" xmlns:xlink="http://www.w3.org/1999/xlink" x="0px" y="0px"
	 width="82.8px" height="90.5px" viewBox="0 0 82.8 90.5" enable-background="new 0 0 82.8 90.5" xml:space="preserve">
<g>
	<path d="M20.9,60.1c4.7,0.301,8.9-0.899,12.8-3.8c-2.5-0.1-4.5-1-6.2-2.7c-0.9-0.899-1.6-2-2-3.3c1.3,0.101,2.5,0.2,3.7-0.2
		c-4.5-1.6-7.2-5.1-6.8-8.7c0.6,0.2,1.2,0.5,1.8,0.7c0.6,0.2,1.2,0.2,2,0.4c-4-3.3-4.8-7.2-2.7-11.8c4.8,5.6,10.8,8.7,18.1,9.2
		c0-0.2,0-0.3,0-0.5c-0.7-3.7,1.101-7.5,4.5-9.3c3.3-1.8,7.5-1.3,10.2,1.4c0.3,0.3,0.5,0.3,0.9,0.2c1.699-0.4,3.399-1.1,5-2
		c-0.301,1.1-0.801,2-1.4,2.7c-0.7,0.7-1.4,1.4-2.2,2.2c1.7-0.5,3.2-0.9,4.8-1.3C62.5,34.7,61.3,36,60,37
		c-0.6,0.4-0.799,0.9-0.799,1.7c-0.301,9.2-4,16.399-11.801,21.5c-4,2.6-8.5,3.7-13.3,3.6c-4.6,0-8.9-1.2-12.9-3.6
		C21.2,60.3,21,60.2,20.9,60.1z"/>
</g>
</svg>
